<svg xmlns="http://www.w3.org/2000/svg" xmlns:xlink="http://www.w3.org/1999/xlink" width="1212" zoomAndPan="magnify" viewBox="0 0 908.88 101.999999" height="136" preserveAspectRatio="xMidYMid meet" version="1.0"><defs><g/><clipPath id="id1"><path d="M 490 16 L 664 16 L 664 101.992188 L 490 101.992188 Z M 490 16 " clip-rule="nonzero"/></clipPath><clipPath id="id2"><path d="M 578 16 L 609 16 L 609 36.75 L 578 36.75 Z M 578 16 " clip-rule="nonzero"/></clipPath><clipPath id="id3"><path d="M 545 16 L 575 16 L 575 36.75 L 545 36.75 Z M 545 16 " clip-rule="nonzero"/></clipPath><clipPath id="id4"><path d="M 567 0.0078125 L 587 0.0078125 L 587 31 L 567 31 Z M 567 0.0078125 " clip-rule="nonzero"/></clipPath></defs><g fill="#112a46" fill-opacity="1"><g transform="translate(189.787752, 91.494651)"><g><path d="M 39.1875 1.203125 C 31.488281 1.203125 25.054688 0.0820312 19.890625 -2.15625 C 14.722656 -4.40625 10.816406 -7.332031 8.171875 -10.9375 C 5.523438 -14.539062 4.125 -18.382812 3.96875 -22.46875 C 3.96875 -23.195312 4.207031 -23.800781 4.6875 -24.28125 C 5.164062 -24.757812 5.765625 -25 6.484375 -25 L 19.46875 -25 C 20.507812 -25 21.3125 -24.796875 21.875 -24.390625 C 22.4375 -23.992188 22.957031 -23.472656 23.4375 -22.828125 C 24 -21.390625 24.898438 -20.03125 26.140625 -18.75 C 27.378906 -17.46875 29.0625 -16.425781 31.1875 -15.625 C 33.3125 -14.820312 35.976562 -14.421875 39.1875 -14.421875 C 44.394531 -14.421875 48.300781 -15.257812 50.90625 -16.9375 C 53.507812 -18.625 54.8125 -20.910156 54.8125 -23.796875 C 54.8125 -25.796875 54.109375 -27.4375 52.703125 -28.71875 C 51.296875 -30 49.085938 -31.160156 46.078125 -32.203125 C 43.078125 -33.242188 39.097656 -34.328125 34.140625 -35.453125 C 28.128906 -36.816406 23.019531 -38.519531 18.8125 -40.5625 C 14.601562 -42.601562 11.4375 -45.242188 9.3125 -48.484375 C 7.1875 -51.734375 6.125 -55.765625 6.125 -60.578125 C 6.125 -65.378906 7.445312 -69.644531 10.09375 -73.375 C 12.738281 -77.101562 16.460938 -80.023438 21.265625 -82.140625 C 26.078125 -84.265625 31.804688 -85.328125 38.453125 -85.328125 C 43.828125 -85.328125 48.578125 -84.601562 52.703125 -83.15625 C 56.828125 -81.71875 60.269531 -79.835938 63.03125 -77.515625 C 65.800781 -75.191406 67.90625 -72.707031 69.34375 -70.0625 C 70.789062 -67.425781 71.550781 -64.863281 71.625 -62.375 C 71.625 -61.65625 71.40625 -61.035156 70.96875 -60.515625 C 70.53125 -59.992188 69.910156 -59.734375 69.109375 -59.734375 L 55.640625 -59.734375 C 54.835938 -59.734375 54.113281 -59.890625 53.46875 -60.203125 C 52.832031 -60.523438 52.273438 -61.085938 51.796875 -61.890625 C 51.398438 -64.054688 50.019531 -65.898438 47.65625 -67.421875 C 45.289062 -68.941406 42.222656 -69.703125 38.453125 -69.703125 C 34.535156 -69.703125 31.429688 -69 29.140625 -67.59375 C 26.859375 -66.195312 25.71875 -64.019531 25.71875 -61.0625 C 25.71875 -59.132812 26.316406 -57.507812 27.515625 -56.1875 C 28.722656 -54.863281 30.6875 -53.703125 33.40625 -52.703125 C 36.132812 -51.703125 39.820312 -50.640625 44.46875 -49.515625 C 51.4375 -48.078125 57.125 -46.332031 61.53125 -44.28125 C 65.9375 -42.238281 69.179688 -39.632812 71.265625 -36.46875 C 73.347656 -33.3125 74.390625 -29.328125 74.390625 -24.515625 C 74.390625 -19.148438 72.90625 -14.539062 69.9375 -10.6875 C 66.976562 -6.84375 62.851562 -3.898438 57.5625 -1.859375 C 52.28125 0.179688 46.15625 1.203125 39.1875 1.203125 Z M 39.1875 1.203125 "/></g></g></g><g fill="#112a46" fill-opacity="1"><g transform="translate(282.571243, 91.494651)"><g><path d="M 43.265625 1.203125 C 36.210938 1.203125 30.039062 0.0195312 24.75 -2.34375 C 19.46875 -4.707031 15.382812 -8.351562 12.5 -13.28125 C 9.613281 -18.207031 8.171875 -24.476562 8.171875 -32.09375 L 8.171875 -81.125 C 8.171875 -82.007812 8.453125 -82.726562 9.015625 -83.28125 C 9.578125 -83.84375 10.257812 -84.125 11.0625 -84.125 L 24.28125 -84.125 C 25.15625 -84.125 25.875 -83.84375 26.4375 -83.28125 C 27 -82.726562 27.28125 -82.007812 27.28125 -81.125 L 27.28125 -32.203125 C 27.28125 -26.359375 28.679688 -21.992188 31.484375 -19.109375 C 34.296875 -16.222656 38.222656 -14.78125 43.265625 -14.78125 C 48.234375 -14.78125 52.117188 -16.222656 54.921875 -19.109375 C 57.722656 -21.992188 59.125 -26.359375 59.125 -32.203125 L 59.125 -81.125 C 59.125 -82.007812 59.425781 -82.726562 60.03125 -83.28125 C 60.632812 -83.84375 61.335938 -84.125 62.140625 -84.125 L 75.359375 -84.125 C 76.160156 -84.125 76.835938 -83.84375 77.390625 -83.28125 C 77.953125 -82.726562 78.234375 -82.007812 78.234375 -81.125 L 78.234375 -32.09375 C 78.234375 -24.476562 76.8125 -18.207031 73.96875 -13.28125 C 71.125 -8.351562 67.078125 -4.707031 61.828125 -2.34375 C 56.585938 0.0195312 50.398438 1.203125 43.265625 1.203125 Z M 43.265625 1.203125 "/></g></g></g><g fill="#112a46" fill-opacity="1"><g transform="translate(383.407016, 91.494651)"><g><path d="M 11.78125 0 C 10.976562 0 10.296875 -0.28125 9.734375 -0.84375 C 9.171875 -1.40625 8.890625 -2.125 8.890625 -3 L 8.890625 -81.125 C 8.890625 -82.007812 9.171875 -82.726562 9.734375 -83.28125 C 10.296875 -83.84375 10.976562 -84.125 11.78125 -84.125 L 25.59375 -84.125 C 26.394531 -84.125 27.078125 -83.84375 27.640625 -83.28125 C 28.203125 -82.726562 28.484375 -82.007812 28.484375 -81.125 L 28.484375 -3 C 28.484375 -2.125 28.203125 -1.40625 27.640625 -0.84375 C 27.078125 -0.28125 26.394531 0 25.59375 0 Z M 11.78125 0 "/></g></g></g><g fill="#112a46" fill-opacity="1"><g transform="translate(435.207967, 91.494651)"><g><path d="M 30.40625 0 C 29.519531 0 28.796875 -0.28125 28.234375 -0.84375 C 27.679688 -1.40625 27.40625 -2.125 27.40625 -3 L 27.40625 -67.3125 L 5.53125 -67.3125 C 4.726562 -67.3125 4.046875 -67.585938 3.484375 -68.140625 C 2.921875 -68.703125 2.640625 -69.425781 2.640625 -70.3125 L 2.640625 -81.125 C 2.640625 -82.007812 2.921875 -82.726562 3.484375 -83.28125 C 4.046875 -83.84375 4.726562 -84.125 5.53125 -84.125 L 68.5 -84.125 C 69.382812 -84.125 70.109375 -83.84375 70.671875 -83.28125 C 71.234375 -82.726562 71.515625 -82.007812 71.515625 -81.125 L 71.515625 -70.3125 C 71.515625 -69.425781 71.234375 -68.703125 70.671875 -68.140625 C 70.109375 -67.585938 69.382812 -67.3125 68.5 -67.3125 L 46.75 -67.3125 L 46.75 -3 C 46.75 -2.125 46.46875 -1.40625 45.90625 -0.84375 C 45.351562 -0.28125 44.632812 0 43.75 0 Z M 30.40625 0 "/></g></g></g><g fill="#112a46" fill-opacity="1"><g transform="translate(523.774891, 91.494651)"><g/></g></g><g fill="#112a46" fill-opacity="1"><g transform="translate(564.759345, 91.494651)"><g/></g></g><g fill="#112a46" fill-opacity="1"><g transform="translate(605.743799, 91.494651)"><g/></g></g><g fill="#112a46" fill-opacity="1"><g transform="translate(646.723493, 91.494651)"><g><path d="M 39.1875 1.203125 C 31.488281 1.203125 25.054688 0.0820312 19.890625 -2.15625 C 14.722656 -4.40625 10.816406 -7.332031 8.171875 -10.9375 C 5.523438 -14.539062 4.125 -18.382812 3.96875 -22.46875 C 3.96875 -23.195312 4.207031 -23.800781 4.6875 -24.28125 C 5.164062 -24.757812 5.765625 -25 6.484375 -25 L 19.46875 -25 C 20.507812 -25 21.3125 -24.796875 21.875 -24.390625 C 22.4375 -23.992188 22.957031 -23.472656 23.4375 -22.828125 C 24 -21.390625 24.898438 -20.03125 26.140625 -18.75 C 27.378906 -17.46875 29.0625 -16.425781 31.1875 -15.625 C 33.3125 -14.820312 35.976562 -14.421875 39.1875 -14.421875 C 44.394531 -14.421875 48.300781 -15.257812 50.90625 -16.9375 C 53.507812 -18.625 54.8125 -20.910156 54.8125 -23.796875 C 54.8125 -25.796875 54.109375 -27.4375 52.703125 -28.71875 C 51.296875 -30 49.085938 -31.160156 46.078125 -32.203125 C 43.078125 -33.242188 39.097656 -34.328125 34.140625 -35.453125 C 28.128906 -36.816406 23.019531 -38.519531 18.8125 -40.5625 C 14.601562 -42.601562 11.4375 -45.242188 9.3125 -48.484375 C 7.1875 -51.734375 6.125 -55.765625 6.125 -60.578125 C 6.125 -65.378906 7.445312 -69.644531 10.09375 -73.375 C 12.738281 -77.101562 16.460938 -80.023438 21.265625 -82.140625 C 26.078125 -84.265625 31.804688 -85.328125 38.453125 -85.328125 C 43.828125 -85.328125 48.578125 -84.601562 52.703125 -83.15625 C 56.828125 -81.71875 60.269531 -79.835938 63.03125 -77.515625 C 65.800781 -75.191406 67.90625 -72.707031 69.34375 -70.0625 C 70.789062 -67.425781 71.550781 -64.863281 71.625 -62.375 C 71.625 -61.65625 71.40625 -61.035156 70.96875 -60.515625 C 70.53125 -59.992188 69.910156 -59.734375 69.109375 -59.734375 L 55.640625 -59.734375 C 54.835938 -59.734375 54.113281 -59.890625 53.46875 -60.203125 C 52.832031 -60.523438 52.273438 -61.085938 51.796875 -61.890625 C 51.398438 -64.054688 50.019531 -65.898438 47.65625 -67.421875 C 45.289062 -68.941406 42.222656 -69.703125 38.453125 -69.703125 C 34.535156 -69.703125 31.429688 -69 29.140625 -67.59375 C 26.859375 -66.195312 25.71875 -64.019531 25.71875 -61.0625 C 25.71875 -59.132812 26.316406 -57.507812 27.515625 -56.1875 C 28.722656 -54.863281 30.6875 -53.703125 33.40625 -52.703125 C 36.132812 -51.703125 39.820312 -50.640625 44.46875 -49.515625 C 51.4375 -48.078125 57.125 -46.332031 61.53125 -44.28125 C 65.9375 -42.238281 69.179688 -39.632812 71.265625 -36.46875 C 73.347656 -33.3125 74.390625 -29.328125 74.390625 -24.515625 C 74.390625 -19.148438 72.90625 -14.539062 69.9375 -10.6875 C 66.976562 -6.84375 62.851562 -3.898438 57.5625 -1.859375 C 52.28125 0.179688 46.15625 1.203125 39.1875 1.203125 Z M 39.1875 1.203125 "/></g></g></g><g clip-path="url(#id1)"><path stroke-linecap="butt" transform="matrix(0.749901, 0, 0, 0.749901, 502.041342, 7.578167)" fill="none" stroke-linejoin="miter" d="M 52.759136 116.609093 C 45.351908 116.609093 38.79375 115.025551 33.079454 111.858466 C 27.391202 108.691381 22.984371 104.310594 19.869376 98.716105 C 16.749172 93.095571 15.191675 86.82391 15.191675 79.895912 C 15.191675 72.967914 16.749172 66.70667 19.869376 61.112181 C 22.984371 55.496856 27.391202 51.100442 33.079454 47.933358 C 38.79375 44.771482 45.351908 43.187939 52.759136 43.187939 C 60.088229 43.187939 66.578669 44.771482 72.220039 47.933358 C 77.887454 51.100442 82.278659 55.496856 85.393654 61.112181 C 88.513857 66.70667 90.076564 72.967914 90.076564 79.895912 C 90.076564 86.82391 88.513857 93.095571 85.393654 98.716105 C 82.278659 104.310594 77.887454 108.691381 72.220039 111.858466 C 66.578669 115.025551 60.088229 116.609093 52.759136 116.609093 Z M 52.613283 93.929015 C 56.806545 93.929015 60.197618 92.621551 62.791711 90.001413 C 65.385803 87.360439 66.682849 83.990202 66.682849 79.895912 C 66.682849 75.707859 65.385803 72.327204 62.791711 69.753947 C 60.197618 67.159855 56.806545 65.862809 52.613283 65.862809 C 48.42523 65.862809 45.028948 67.159855 42.434856 69.753947 C 39.866808 72.327204 38.58018 75.707859 38.58018 79.895912 C 38.58018 83.990202 39.866808 87.360439 42.434856 90.001413 C 45.028948 92.621551 48.42523 93.929015 52.613283 93.929015 Z M 147.537277 116.609093 C 140.135258 116.609093 133.5771 115.025551 127.862804 111.858466 C 122.169343 108.691381 117.76772 104.310594 114.647517 98.716105 C 111.527313 93.095571 109.969816 86.82391 109.969816 79.895912 C 109.969816 72.967914 111.527313 66.70667 114.647517 61.112181 C 117.76772 55.496856 122.169343 51.100442 127.862804 47.933358 C 133.5771 44.771482 140.135258 43.187939 147.537277 43.187939 C 154.871579 43.187939 161.35681 44.771482 166.99818 47.933358 C 172.665595 51.100442 177.0568 55.496856 180.177004 61.112181 C 183.297207 66.70667 184.854705 72.967914 184.854705 79.895912 C 184.854705 86.82391 183.297207 93.095571 180.177004 98.716105 C 177.0568 104.310594 172.665595 108.691381 166.99818 111.858466 C 161.35681 115.025551 154.871579 116.609093 147.537277 116.609093 Z M 147.396633 93.929015 C 151.584686 93.929015 154.975759 92.621551 157.569852 90.001413 C 160.169153 87.360439 161.466199 83.990202 161.466199 79.895912 C 161.466199 75.707859 160.169153 72.327204 157.569852 69.753947 C 154.975759 67.159855 151.584686 65.862809 147.396633 65.862809 C 143.203371 65.862809 139.812298 67.159855 137.218206 69.753947 C 134.644949 72.327204 133.358321 75.707859 133.358321 79.895912 C 133.358321 83.990202 134.644949 87.360439 137.218206 90.001413 C 139.812298 92.621551 143.203371 93.929015 147.396633 93.929015 Z M 147.396633 93.929015 " stroke="#112a46" stroke-width="5.485163" stroke-opacity="1" stroke-miterlimit="4"/></g><g clip-path="url(#id2)"><path fill="#112a46" d="M 578.964844 36.757812 C 583.355469 33.304688 588.382812 32.691406 591.007812 32.753906 C 596.042969 32.878906 601.75 34.140625 605.566406 31.074219 C 608.261719 28.910156 609.296875 25.601562 607.652344 22.398438 C 607.1875 21.503906 606.621094 20.65625 605.941406 19.90625 C 601.238281 14.730469 592.828125 15.71875 588.109375 20.066406 C 582.378906 25.34375 580.648438 32.894531 578.964844 36.757812 Z M 578.964844 36.757812 " fill-opacity="1" fill-rule="nonzero"/></g><g clip-path="url(#id3)"><path fill="#112a46" d="M 565.664062 20.066406 C 560.945312 15.71875 552.535156 14.730469 547.835938 19.90625 C 547.152344 20.65625 546.585938 21.503906 546.125 22.402344 C 544.476562 25.601562 545.511719 28.910156 548.210938 31.074219 C 552.023438 34.140625 557.730469 32.878906 562.765625 32.757812 C 565.394531 32.691406 570.421875 33.304688 574.8125 36.757812 C 573.125 32.894531 571.394531 25.34375 565.664062 20.066406 Z M 565.664062 20.066406 " fill-opacity="1" fill-rule="nonzero"/></g><g clip-path="url(#id4)"><path fill="#112a46" d="M 576.886719 0 C 571.542969 0 567.210938 4.316406 567.210938 9.640625 C 567.210938 12.445312 572.21875 21.875 575.03125 26.941406 C 577.578125 22.703125 582.484375 14.003906 583.007812 10.566406 C 583.109375 9.894531 583.738281 9.433594 584.414062 9.535156 C 585.089844 9.636719 585.550781 10.261719 585.449219 10.933594 C 584.679688 15.980469 576.789062 28.804688 576.453125 29.347656 C 576.441406 29.367188 576.425781 29.386719 576.414062 29.40625 C 576.710938 29.929688 576.886719 30.230469 576.886719 30.230469 C 576.886719 30.230469 586.566406 14.964844 586.566406 9.640625 C 586.566406 4.316406 582.230469 0 576.886719 0 Z M 576.886719 0 " fill-opacity="1" fill-rule="nonzero"/></g></svg>